<?xml version="1.0" encoding="UTF-8" standalone="no"?>
<svg
   width="62"
   height="62"
   viewBox="0 0 62 62"
   fill="none"
   version="1.1"
   id="svg720"
   sodipodi:docname="favicon.svg"
   inkscape:version="1.2.2 (732a01da63, 2022-12-09)"
   xmlns:inkscape="http://www.inkscape.org/namespaces/inkscape"
   xmlns:sodipodi="http://sodipodi.sourceforge.net/DTD/sodipodi-0.dtd"
   xmlns="http://www.w3.org/2000/svg"
   xmlns:svg="http://www.w3.org/2000/svg">
  <sodipodi:namedview
     id="namedview722"
     pagecolor="#ffffff"
     bordercolor="#000000"
     borderopacity="0.25"
     inkscape:showpageshadow="2"
     inkscape:pageopacity="0.0"
     inkscape:pagecheckerboard="0"
     inkscape:deskcolor="#d1d1d1"
     showgrid="false"
     inkscape:zoom="6.6854839"
     inkscape:cx="-8.1519903"
     inkscape:cy="40.535585"
     inkscape:window-width="1920"
     inkscape:window-height="1009"
     inkscape:window-x="-8"
     inkscape:window-y="-8"
     inkscape:window-maximized="1"
     inkscape:current-layer="g710" />
  <g
     clip-path="url(#clip0_6_6)"
     id="g710">
    <rect
       width="62.211536"
       height="61.365395"
       rx="15.051178"
       fill="#ffffff"
       id="rect704"
       x="-0.21153496"
       y="0.63460487"
       style="stroke-width:0.996565" />
    <path
       d="m 32.09992,22.300372 c -10.254805,4.086709 -18.822174,7.514419 -19.037485,7.6151 -0.851229,0.398146 -1.802602,1.006805 -2.488593,1.583428 l -0.36052,0.306619 v -0.247126 c 0,-0.375264 0.140202,-1.414102 0.280405,-2.050218 0.510737,-2.370567 1.577277,-4.489432 3.23467,-6.448124 0.535773,-0.626964 2.062979,-2.022761 2.748969,-2.512435 1.912762,-1.354608 4.020805,-2.292767 6.259036,-2.796169 4.156,-0.929005 8.632463,-0.343229 12.23266,1.597158 l 0.430622,0.233395 1.226772,-0.489674 c 0.675976,-0.270005 1.22677,-0.503401 1.22677,-0.521707 0,-0.0183 -0.230332,-0.173902 -0.510737,-0.35238 -2.213195,-1.382069 -4.621672,-2.288192 -7.260483,-2.732102 -2.158115,-0.36611 -4.626679,-0.36611 -6.77478,-0.0046 -5.047287,0.851208 -9.413591,3.482628 -12.267711,7.390859 -2.4585496,3.363641 -3.5250891,7.345094 -3.0494029,11.395192 0.065095,0.567472 0.1351961,1.006805 0.2002897,1.272235 0.025038,0.105257 0.025038,1.390251 0.23534,1.225502 2.0028912,-1.592582 3.6803132,-3.916414 5.7683272,-4.836268 2.829085,-1.244776 5.668184,-1.917504 8.086675,-1.917504 1.2468,0 1.93279,0.109833 2.508622,0.393569 l 0.240347,0.123562 10.079552,-4.018065 c 5.543003,-2.210392 10.369971,-4.150778 10.725485,-4.310952 2.869142,-1.313422 4.206072,-2.924308 4.71681,-5.688443 0.09514,-0.526284 0.225326,-1.592581 0.200289,-1.633769 -0.005,-0.0046 -8.397123,3.336183 -18.651929,7.422894 z"
       id="path2"
       style="fill:#0083cf;fill-opacity:1;stroke-width:0.00478696"
       sodipodi:nodetypes="scccscccccccsccccccccsccccccs" />
    <path
       d="m 37.104059,26.721157 c -8.752636,3.491781 -12.162558,4.873847 -12.217638,4.94707 -0.165239,0.224242 -0.320463,0.36611 -0.525759,0.471368 -0.115166,0.06407 -0.801157,0.270006 -1.522198,0.457637 -1.361967,0.352382 -2.904193,0.896972 -2.653831,0.933582 0.0651,0.0092 0.981416,0 2.032935,-0.0183 l 1.907754,-0.03203 0.105152,-0.192209 c 0.05508,-0.10068 0.190275,-0.36611 0.295427,-0.581199 0.410593,-0.82375 0.77612,-1.015958 2.037941,-1.080026 0.901302,-0.04119 1.91777,0.08695 2.829085,0.356956 1.356959,0.407299 2.16813,1.020534 2.523644,1.917505 l 0.105151,0.256278 5.983639,-2.384295 c 3.28975,-1.313422 6.234001,-2.503282 6.544448,-2.649727 0.981417,-0.457638 1.722487,-0.938158 2.398463,-1.55597 0.335485,-0.306617 0.721041,-0.709339 0.856236,-0.89697 0.690997,-0.942735 1.111605,-2.018185 1.341938,-3.423134 0.07511,-0.466792 0.155224,-1.386646 0.120174,-1.377492 -0.01002,0 -5.482916,2.182934 -12.162561,4.850966 z"
       id="path4"
       style="fill:#0083cf;fill-opacity:1;stroke-width:0.00478696" />
    <path
       d="m 40.732383,32.048068 c -4.376317,1.748176 -8.051625,3.217195 -8.16679,3.267536 -0.165239,0.06864 -0.210304,0.123562 -0.265384,0.283736 -0.170246,0.526284 -0.670968,1.217317 -1.316901,1.816823 -0.415599,0.388993 -0.921329,0.796291 -0.88628,0.718493 0.01002,-0.02746 0.09514,-0.178479 0.185268,-0.34323 0.500723,-0.915275 0.38055,-1.574275 -0.320463,-1.784789 -0.280404,-0.08695 -0.971402,-0.03203 -1.417045,0.109834 -0.690998,0.219666 -2.088015,0.933582 -3.349836,1.711567 -3.429952,2.109712 -5.778343,4.512313 -6.354175,6.493888 -0.165238,0.567471 -0.185267,1.37749 -0.05007,1.844281 0.210303,0.709339 0.63091,1.322574 1.321908,1.922081 0.731055,0.636117 1.021474,0.787139 1.84266,0.979346 1.822631,0.421027 3.124511,0.553743 5.13241,0.517131 2.183152,-0.04119 3.640255,-0.265431 5.633133,-0.874089 6.063754,-1.858011 10.735499,-6.50304 12.242674,-12.177755 0.105152,-0.402721 0.205297,-0.805443 0.220318,-0.892395 0.02504,-0.137291 0.09514,-0.20136 0.425615,-0.43018 0.520752,-0.347803 1.236786,-1.006803 1.602314,-1.482746 0.796149,-1.011382 1.28185,-2.361415 1.48214,-4.091287 0.08512,-0.782561 0.08512,-0.768832 0.04005,-0.764256 -0.02503,0 -3.620227,1.432408 -8.001552,3.176011 z m 1.677422,4.997408 c -0.435629,1.308846 -1.33693,2.928886 -2.31334,4.182815 -0.951373,1.21274 -2.243239,2.407176 -3.620226,3.340759 -2.333369,1.583429 -5.132411,2.571928 -8.056632,2.855663 -0.811171,0.0778 -2.548679,0.09153 -3.134525,0.02288 -1.301881,-0.151021 -2.198175,-0.590353 -2.553687,-1.258505 -0.18026,-0.329499 -0.175254,-0.782562 0.01001,-1.098332 0.135195,-0.233395 0.430622,-0.517131 0.736064,-0.709339 0.165241,-0.105258 18.847213,-7.583068 18.967386,-7.592221 0.04006,-0.0046 0.03004,0.0778 -0.03504,0.256278 z"
       id="path22"
       style="fill:#0083cf;fill-opacity:1;stroke-width:0.00478696" />
  </g>
  <defs
     id="defs718">
    <clipPath
       id="clip0_6_6">
      <rect
         width="62"
         height="62"
         rx="15"
         fill="white"
         id="rect712" />
    </clipPath>
    <clipPath
       id="clip1_6_6">
      <rect
         width="52"
         height="52"
         fill="white"
         transform="translate(-4 29) rotate(-45)"
         id="rect715" />
    </clipPath>
  </defs>
</svg>
